<?xml version="1.0" standalone="no"?>
<!DOCTYPE svg PUBLIC "-//W3C//DTD SVG 20010904//EN"
 "http://www.w3.org/TR/2001/REC-SVG-20010904/DTD/svg10.dtd">
<svg version="1.0" xmlns="http://www.w3.org/2000/svg"
 width="300.000000pt" height="241.000000pt" viewBox="0 0 300.000000 241.000000"
 preserveAspectRatio="xMidYMid meet">
<metadata>
Created by potrace 1.10, written by Peter Selinger 2001-2011
</metadata>
<g transform="translate(0.000000,241.000000) scale(0.050000,-0.050000)"
fill="#fef9bc" stroke="none">
<path d="M2710 4680 c-796 -118 -1420 -677 -1624 -1456 -69 -265 -93 -835 -36
-877 85 -62 110 -6 110 250 0 1199 803 2019 1930 1969 1118 -50 1851 -852
1819 -1990 -6 -221 9 -271 76 -245 114 44 59 782 -85 1142 -343 857 -1234
1349 -2190 1207z"/>
<path d="M2840 4380 c-1386 -171 -1989 -1815 -1021 -2780 958 -955 2506 -551
2843 740 287 1099 -680 2182 -1822 2040z m558 -170 c1287 -307 1604 -1990 515
-2734 -1034 -707 -2417 12 -2418 1255 0 797 542 1395 1375 1517 102 15 393 -6
528 -38z"/>
<path d="M2529 3935 c7 -25 22 -103 34 -175 29 -182 79 -380 96 -380 8 0 26
-23 41 -50 28 -52 286 -230 334 -230 54 0 -16 222 -113 358 -25 36 -40 70 -33
77 21 21 103 -71 174 -195 84 -147 103 -150 86 -15 -37 287 -133 417 -411 557
-226 113 -226 113 -208 53z m246 -233 c19 -73 17 -164 -6 -300 l-12 -68 -40
41 c-46 45 -86 306 -64 421 l12 66 45 -42 c25 -24 54 -77 65 -118z"/>
<path d="M3673 3609 c-234 -46 -379 -174 -443 -389 -13 -45 -6 -42 67 28 45
44 84 101 87 130 4 33 20 54 45 59 34 6 36 3 14 -23 -22 -26 -19 -29 16 -20
44 11 60 -40 20 -65 -12 -7 -17 -26 -11 -41 6 -15 -11 -51 -37 -79 l-48 -51
-6 46 c-7 43 -11 41 -65 -30 -75 -98 -62 -106 109 -64 211 52 267 115 455 515
10 20 -40 16 -203 -16z"/>
<path d="M2231 3502 c106 -315 336 -546 725 -725 648 -298 793 -891 312 -1277
-107 -85 -98 -102 16 -35 650 381 576 1284 -124 1517 -161 54 -487 183 -580
230 -72 37 -257 213 -335 318 l-44 60 30 -88z"/>
<path d="M2208 3030 c4 -77 27 -198 51 -270 l43 -130 -42 -90 c-24 -49 -57
-113 -75 -142 -40 -66 -22 -114 55 -141 44 -15 60 -34 60 -68 0 -26 9 -52 20
-59 11 -7 20 -29 20 -50 0 -21 16 -49 36 -64 20 -14 58 -66 85 -116 70 -128
120 -128 370 -1 231 117 299 124 441 49 88 -47 94 -48 60 -10 -99 109 -290
115 -475 14 -249 -135 -336 -132 -368 13 -8 35 -29 64 -51 70 -23 6 -38 27
-38 55 0 25 -14 51 -31 58 -25 9 -26 20 -8 54 23 44 1 77 -52 78 -11 0 -40 14
-64 31 l-43 30 59 93 c83 132 92 204 40 330 -24 59 -56 174 -71 256 l-29 150
7 -140z"/>
<path d="M2579 2699 c-16 -10 -53 -19 -83 -19 -34 0 -63 -15 -76 -40 -18 -33
-15 -40 16 -40 64 0 160 41 173 74 16 41 7 48 -30 25z"/>
<path d="M350 1703 c-221 -138 -244 -350 -58 -536 208 -208 473 -236 908 -97
224 71 271 80 454 80 143 0 191 6 160 18 -110 47 -395 23 -673 -56 -352 -99
-439 -107 -588 -55 -345 122 -450 431 -205 599 152 104 347 -15 304 -187 -26
-102 -149 -105 -150 -2 -2 167 -22 188 -100 105 -37 -39 -42 -60 -31 -123 11
-54 8 -71 -8 -61 -37 23 -26 -19 14 -55 77 -70 217 -38 289 66 128 186 -121
425 -316 304z"/>
<path d="M5478 1694 c-132 -89 -153 -212 -56 -323 75 -86 205 -101 268 -31 23
26 27 40 11 40 -17 0 -21 22 -12 75 10 60 4 84 -29 120 -51 56 -100 60 -86 7
5 -21 0 -43 -12 -51 -11 -7 -15 -39 -9 -72 14 -71 -63 -86 -120 -22 -132 145
105 331 283 222 277 -168 98 -553 -289 -621 -127 -22 -187 -12 -587 92 -217
57 -502 75 -594 38 -30 -12 25 -18 170 -19 195 -1 235 -8 444 -79 487 -165
870 -79 1005 226 111 251 -173 543 -387 398z"/>
<path d="M1390 1390 c-97 -33 -239 -38 -291 -9 -49 26 -51 -4 -4 -47 70 -63
146 -78 279 -55 249 44 534 -48 698 -223 109 -117 116 -115 81 19 -32 122 -98
233 -108 182 -16 -76 -45 -68 -266 71 -142 89 -258 108 -389 62z"/>
<path d="M4390 1387 c-33 -17 -116 -67 -185 -112 -117 -75 -217 -82 -174 -13
28 45 -34 12 -64 -34 -36 -55 -93 -249 -77 -265 5 -5 46 32 91 83 156 178 430
269 692 232 157 -22 199 -16 274 43 62 49 72 91 14 60 -54 -29 -158 -26 -273
9 -125 38 -222 37 -298 -3z"/>
<path d="M620 1280 c-93 -174 104 -244 405 -144 102 34 208 66 235 71 59 12
-198 -2 -365 -19 -112 -11 -118 -9 -185 58 -65 65 -72 68 -90 34z"/>
<path d="M5364 1250 c-60 -62 -164 -82 -288 -53 -55 13 -155 22 -223 21 l-123
-3 105 -17 c58 -10 159 -40 225 -68 238 -100 450 -25 388 138 -16 43 -30 40
-84 -18z"/>
<path d="M1340 1063 c-93 -31 -230 -80 -303 -109 -143 -58 -309 -71 -437 -34
-78 22 -132 -8 -101 -58 23 -37 205 -51 318 -25 99 22 150 11 135 -30 -20 -51
24 -27 118 64 110 107 198 119 202 29 1 -27 4 -63 5 -78 2 -17 50 19 115 83
148 150 249 189 415 161 146 -25 166 -18 67 24 -117 49 -336 38 -534 -27z"/>
<path d="M4167 1082 c-124 -57 -123 -85 2 -41 209 74 335 40 505 -134 108
-111 133 -112 122 -6 -11 96 86 76 208 -43 96 -95 107 -100 113 -60 6 44 11
44 184 31 150 -12 186 -9 230 20 79 51 47 61 -198 61 -172 0 -237 8 -285 34
-256 140 -717 212 -881 138z"/>
<path d="M1753 800 c-100 -64 -193 -79 -193 -32 0 48 -63 56 -108 13 -41 -37
-73 -39 -651 -40 -335 -1 -613 -6 -618 -11 -5 -6 269 -10 609 -10 594 0 620
-2 653 -40 44 -50 107 -51 189 -1 61 38 111 39 1384 39 l1320 1 86 -49 c108
-62 126 -62 188 0 l49 49 615 6 614 6 -626 4 c-526 4 -632 10 -657 35 -38 38
-56 38 -94 0 -43 -43 -101 -37 -209 20 -106 57 -210 63 -284 18 -35 -22 -38
-27 -10 -18 98 31 149 32 202 3 53 -29 -42 -31 -1122 -32 -649 -1 -1216 -7
-1260 -14 -78 -12 -79 -11 -44 25 27 29 64 38 155 38 100 0 114 4 85 25 -59
44 -171 29 -273 -35z"/>
<path d="M1333 510 c-72 -72 -52 -308 31 -352 126 -68 217 238 105 351 -40 39
-97 40 -136 1z m106 -49 c28 -51 27 -207 -1 -235 -49 -49 -78 -4 -78 123 0
154 33 200 79 112z"/>
<path d="M1568 350 l2 -191 110 6 c103 5 110 8 110 55 0 74 78 70 86 -5 5 -39
18 -55 45 -55 41 0 54 49 19 70 -11 7 -20 33 -20 58 0 227 -126 335 -149 127
-22 -202 -25 -209 -94 -199 l-60 9 7 158 c5 133 1 157 -26 157 -27 0 -32 -29
-30 -190z m290 -5 c1 -14 -11 -25 -28 -25 -33 0 -37 24 -16 100 l14 50 14 -50
c8 -27 15 -61 16 -75z"/>
<path d="M2098 531 c-5 -4 -4 -72 2 -150 6 -78 4 -160 -4 -182 -17 -46 116
-59 160 -15 29 29 32 149 5 166 -11 6 -14 38 -8 71 18 87 -97 168 -155 110z
m118 -78 c4 -19 -6 -33 -25 -33 -18 0 -31 17 -31 42 0 48 47 42 56 -9z m-5
-122 c35 -54 23 -131 -20 -131 -36 0 -48 37 -36 115 11 78 15 79 56 16z"/>
<path d="M2338 525 c-2 -8 -2 -22 0 -30 1 -8 3 -87 5 -176 l3 -161 82 6 c95 7
109 41 23 56 -32 5 -57 17 -55 25 2 8 4 32 4 53 0 21 18 42 40 48 22 6 40 20
40 32 0 12 -18 22 -40 22 -29 0 -40 13 -40 49 0 40 9 48 53 45 29 -2 57 7 61
21 7 18 -18 25 -82 25 -51 0 -93 -7 -94 -15z"/>
<path d="M2573 365 c-40 -212 -40 -205 -2 -205 21 0 29 16 25 55 -5 47 1 55
44 55 43 0 49 -8 44 -55 -6 -45 1 -55 37 -55 36 0 41 8 30 45 -8 25 -22 86
-31 135 -47 256 -101 265 -147 25z m92 5 c7 -40 1 -50 -30 -50 -28 0 -36 9
-27 32 7 17 12 45 12 61 0 46 34 13 45 -43z"/>
<path d="M2794 397 c16 -237 106 -325 180 -177 36 71 35 320 -1 320 -22 0 -25
-30 -17 -143 8 -123 5 -147 -26 -170 -64 -46 -85 -2 -76 163 8 139 6 150 -31
150 -36 0 -38 -11 -29 -143z"/>
<path d="M3033 527 c-25 -26 -13 -47 29 -47 39 0 41 -9 35 -161 -7 -151 -5
-160 33 -154 24 3 37 18 33 35 -10 38 -10 47 -6 175 2 88 9 105 40 105 49 0
110 -156 99 -251 -6 -54 -1 -69 25 -69 48 0 60 20 38 62 -15 28 -8 75 27 178
44 132 45 140 10 140 -27 0 -36 -15 -36 -59 0 -86 -33 -92 -63 -11 -24 68
-212 109 -264 57z"/>
<path d="M3536 529 c-6 -5 6 -71 26 -145 20 -74 37 -155 37 -181 1 -28 11 -43
26 -38 33 11 44 90 17 122 -11 14 -27 77 -34 139 -12 102 -37 138 -72 103z"/>
<path d="M3651 522 c-6 -10 -3 -40 6 -65 10 -26 13 -78 8 -115 -7 -44 -3 -63
10 -55 23 14 45 -30 45 -90 0 -99 52 -8 86 151 40 182 37 205 -17 184 -26 -9
-28 -19 -11 -39 21 -26 3 -199 -24 -226 -11 -11 -46 228 -38 258 6 22 -51 19
-65 -3z"/>
<path d="M3913 504 c-108 -120 -19 -411 106 -344 113 60 92 380 -25 380 -26 0
-63 -16 -81 -36z m107 -55 c50 -132 2 -289 -70 -229 -52 43 -27 280 30 280 12
0 30 -23 40 -51z"/>
<path d="M4134 527 c-7 -7 -6 -27 3 -45 9 -17 15 -97 14 -177 -1 -125 4 -145
34 -145 39 0 46 41 13 74 -16 16 -16 33 -1 59 19 33 25 27 55 -48 19 -47 46
-85 61 -85 36 0 34 24 -8 98 -29 51 -31 68 -10 101 67 107 -75 255 -161 168z
m116 -97 c0 -31 -11 -60 -25 -65 -17 -6 -25 15 -25 65 0 50 8 71 25 65 14 -5
25 -34 25 -65z"/>
<path d="M4378 525 c-2 -8 -2 -22 0 -30 1 -8 3 -87 5 -176 l3 -161 71 6 c85 7
108 50 31 60 l-55 6 5 155 c4 129 -1 155 -27 155 -17 0 -32 -7 -33 -15z"/>
<path d="M4571 521 c-38 -60 -2 -359 44 -370 139 -35 224 229 113 351 -36 40
-137 52 -157 19z m129 -72 c43 -111 3 -278 -57 -241 -37 23 -31 292 7 292 17
0 40 -23 50 -51z"/>
<path d="M954 404 l-74 -76 95 -91 c86 -84 145 -106 145 -54 0 11 -9 14 -20 7
-11 -7 -20 -3 -20 7 0 11 -20 23 -45 27 -85 12 -52 66 41 69 144 5 145 42 2
59 -108 13 -109 13 -67 76 47 72 30 65 -57 -24z"/>
<path d="M4940 461 c0 -12 8 -21 18 -21 9 0 22 -22 27 -50 8 -42 2 -50 -37
-50 -25 0 -51 -9 -58 -20 -7 -12 14 -20 50 -20 34 0 57 -9 51 -19 -7 -11 -6
-43 1 -72 l13 -52 86 84 87 85 -71 71 c-69 69 -167 106 -167 64z"/>
<path d="M2180 100 c-529 -9 -573 -12 -330 -22 396 -17 1855 -16 2260 1 l340
14 -420 6 c-718 11 -1217 11 -1850 1z"/>
</g>
</svg>
