<svg id="visual" viewBox="0 0 900 600" width="900" height="600" xmlns="http://www.w3.org/2000/svg" xmlns:xlink="http://www.w3.org/1999/xlink" version="1.1"><rect width="900" height="600" fill="#262626"></rect><g><g transform="translate(259 598)"><path d="M112.7 -40.2C127.9 10.2 109.6 67.9 67.8 99.7C26.1 131.6 -39.1 137.5 -80.4 108.1C-121.8 78.7 -139.3 13.9 -121.9 -39.5C-104.5 -92.9 -52.3 -134.8 -1.8 -134.2C48.8 -133.7 97.5 -90.6 112.7 -40.2Z" fill="#fef9bc"></path></g><g transform="translate(32 141)"><path d="M76.2 -25.8C84.5 0.9 67.3 34.9 41.1 53.2C14.8 71.5 -20.4 74 -44.9 57.3C-69.5 40.5 -83.3 4.5 -74 -23.5C-64.7 -51.6 -32.4 -71.6 0.8 -71.8C33.9 -72.1 67.8 -52.6 76.2 -25.8Z" fill="#fef9bc"></path></g><g transform="translate(767 176)"><path d="M118.6 -42.5C131.8 2.1 105.5 55.6 64.7 84.1C23.9 112.6 -31.5 116.1 -66.4 90.9C-101.3 65.6 -115.7 11.7 -101.3 -34.7C-86.8 -81 -43.4 -119.8 4.7 -121.3C52.7 -122.8 105.4 -87.1 118.6 -42.5Z" fill="#fef9bc"></path></g><g transform="translate(851 593)"><path d="M68.7 -22.8C78.9 9.2 70.1 46.8 47.3 62.9C24.4 79.1 -12.6 73.7 -38.9 54.4C-65.2 35.1 -80.8 1.9 -72.5 -27.4C-64.3 -56.7 -32.1 -82.1 -1.5 -81.6C29.2 -81.2 58.4 -54.8 68.7 -22.8Z" fill="#fef9bc"></path></g></g></svg>