<?xml version="1.0" standalone="no"?>
<!DOCTYPE svg PUBLIC "-//W3C//DTD SVG 20010904//EN"
 "http://www.w3.org/TR/2001/REC-SVG-20010904/DTD/svg10.dtd">
<svg version="1.0" xmlns="http://www.w3.org/2000/svg"
 width="1071.000000pt" height="754.000000pt" viewBox="0 0 1071.000000 754.000000"
 preserveAspectRatio="xMidYMid meet">
<metadata>
Created by potrace 1.16, written by Peter Selinger 2001-2019
</metadata>
<g transform="translate(0.000000,754.000000) scale(0.100000,-0.100000)"
fill="#fef9bc" stroke="none">
<path d="M0 3770 l0 -3770 5355 0 5355 0 0 3770 0 3770 -5355 0 -5355 0 0
-3770z m5715 3645 c496 -44 862 -148 1264 -356 696 -362 1198 -940 1461 -1684
146 -415 211 -937 180 -1450 -8 -135 -16 -210 -27 -232 -30 -64 -124 -80 -172
-29 -32 34 -37 66 -29 164 12 133 11 563 -2 692 -53 566 -235 1084 -524 1491
-401 565 -1053 986 -1751 1129 -248 51 -369 63 -655 64 -237 0 -296 -3 -425
-22 -370 -57 -640 -140 -947 -292 -275 -137 -493 -295 -718 -520 -196 -196
-344 -395 -468 -630 -172 -326 -266 -615 -337 -1033 -31 -184 -38 -302 -40
-641 l-2 -359 -32 -29 c-61 -55 -157 -28 -179 51 -4 14 -7 184 -6 376 1 381 8
466 65 775 37 198 53 263 116 455 183 564 513 1048 959 1408 68 55 255 185
369 257 52 33 331 169 402 196 497 191 998 264 1498 219z m-2 -500 c85 -8 179
-20 209 -26 424 -85 763 -229 1085 -459 124 -89 177 -133 316 -270 470 -458
744 -1059 786 -1725 9 -142 9 -187 -4 -380 -27 -407 -189 -873 -425 -1228
-119 -178 -201 -279 -345 -422 -164 -164 -239 -223 -515 -405 -41 -27 -281
-145 -345 -170 -33 -13 -64 -26 -70 -30 -29 -21 -332 -103 -485 -132 -171 -32
-182 -32 -455 -33 -292 0 -349 5 -580 56 -538 116 -1038 413 -1414 839 -442
500 -680 1160 -658 1825 23 690 293 1311 782 1800 562 562 1325 836 2118 760z
m-4150 -4255 c216 -82 299 -324 181 -528 -68 -116 -229 -178 -354 -137 -78 26
-160 108 -160 160 0 14 3 14 26 -2 25 -16 27 -16 39 1 11 15 11 25 -1 58 -18
53 -18 151 1 187 21 42 90 98 143 115 66 23 80 21 54 -7 -28 -30 -28 -63 3
-139 21 -52 24 -71 19 -128 -6 -62 -5 -69 14 -79 37 -20 118 5 163 50 22 22
44 51 49 65 16 42 11 135 -9 180 -16 36 -79 108 -122 139 -59 44 -197 59 -280
30 -127 -45 -251 -183 -288 -323 -16 -56 -15 -165 0 -227 27 -110 143 -259
265 -340 30 -20 94 -55 141 -76 242 -112 486 -111 883 2 214 62 449 119 600
145 176 31 408 38 515 15 258 -54 477 -193 611 -387 53 -76 36 -77 -23 -2
-224 285 -518 389 -943 333 -124 -16 -168 -28 -508 -141 -330 -110 -495 -143
-698 -144 -255 0 -442 70 -650 243 -102 85 -166 165 -216 273 -28 59 -33 83
-36 164 -4 83 -1 105 23 175 88 264 336 408 558 325z m8087 -11 c172 -80 300
-280 300 -470 0 -131 -74 -284 -191 -395 -276 -259 -529 -340 -904 -290 -141
19 -219 38 -475 118 -508 159 -521 162 -740 162 -173 0 -282 -18 -404 -66
-114 -44 -264 -165 -346 -277 -25 -34 -48 -61 -53 -61 -21 0 83 139 155 205
132 122 275 196 470 242 103 24 338 24 488 -1 121 -19 490 -107 551 -131 80
-31 372 -95 482 -106 291 -29 559 62 753 255 131 131 189 299 154 447 -33 138
-138 270 -263 330 -51 24 -75 29 -133 29 -122 0 -215 -49 -282 -149 -34 -52
-37 -61 -37 -131 0 -65 4 -81 28 -118 43 -67 179 -120 203 -80 5 7 7 47 5 89
-2 66 1 84 23 128 32 62 33 90 4 126 l-22 28 30 -7 c62 -14 138 -61 168 -103
37 -53 46 -130 22 -187 -30 -73 -10 -121 34 -81 26 24 37 12 21 -22 -25 -54
-73 -102 -129 -129 -49 -23 -64 -26 -124 -21 -117 10 -189 54 -253 152 -121
190 -41 431 173 522 79 33 211 29 292 -8z m-6457 -463 c83 -16 227 -84 343
-163 194 -132 228 -153 262 -159 53 -10 86 12 90 60 2 21 -1 51 -7 67 -5 16
-8 29 -5 29 17 0 102 -95 134 -150 64 -109 105 -272 98 -390 l-3 -54 -30 45
c-115 176 -351 361 -555 435 -211 76 -475 92 -723 44 -148 -29 -220 -14 -324
68 -50 40 -120 128 -110 138 3 3 23 -6 44 -20 91 -60 220 -57 457 11 194 56
223 59 329 39z m4808 -26 c156 -46 313 -73 386 -67 59 6 134 35 148 57 3 5 13
10 22 10 40 0 -95 -148 -169 -186 -83 -42 -137 -47 -257 -23 -361 71 -712 4
-987 -188 -93 -65 -203 -170 -270 -260 -30 -40 -58 -73 -61 -73 -9 0 7 171 23
235 19 79 61 180 96 232 24 36 109 125 114 120 1 -1 -3 -23 -8 -49 -15 -64 -1
-95 46 -103 47 -9 96 14 246 120 289 204 441 244 671 175z m-6256 -157 c9 -21
30 -53 48 -71 109 -114 284 -141 522 -82 148 37 314 49 434 30 45 -7 83 -16
86 -20 2 -4 -52 -12 -121 -19 -200 -18 -240 -30 -499 -145 -171 -75 -307 -86
-415 -32 -126 63 -177 153 -144 254 14 41 60 122 70 122 2 0 11 -17 19 -37z
m7511 -50 c65 -132 -11 -259 -186 -310 -101 -29 -259 3 -460 94 -136 62 -277
96 -444 109 -105 7 -98 17 23 35 135 19 291 7 449 -36 149 -39 196 -42 291
-19 135 33 222 96 253 181 11 31 13 32 30 16 10 -9 30 -40 44 -70z m-5803
-234 c143 -21 290 -83 377 -158 49 -43 50 -66 1 -32 -50 36 -151 77 -231 96
-101 23 -267 23 -345 0 -157 -45 -330 -179 -470 -363 -21 -29 -44 -52 -50 -52
-6 0 -19 16 -29 37 -14 29 -16 50 -10 100 11 111 -26 141 -127 104 -70 -27
-156 -95 -219 -175 -51 -65 -109 -110 -156 -122 -24 -6 -26 -5 -19 12 4 10 10
33 13 51 3 25 -1 34 -22 48 -24 16 -34 15 -183 -10 -189 -32 -318 -35 -398
-10 -104 33 -143 98 -90 150 28 29 41 30 113 11 149 -40 448 -46 547 -11 28 9
124 46 215 82 284 113 604 214 755 238 101 16 235 18 328 4z m4432 -19 c162
-36 348 -99 680 -230 99 -39 197 -75 219 -81 117 -32 298 -27 498 12 87 17
111 18 130 8 32 -16 38 -28 38 -71 0 -29 -6 -41 -27 -56 -83 -58 -236 -69
-448 -32 -197 35 -207 35 -229 11 -18 -19 -19 -27 -9 -64 6 -23 9 -44 7 -46
-11 -11 -83 38 -129 88 -139 152 -211 208 -291 225 -74 16 -115 -37 -94 -123
10 -42 9 -55 -5 -85 -30 -62 -38 -62 -84 -1 -141 186 -320 326 -475 370 -48
14 -87 17 -195 13 -153 -6 -247 -30 -353 -93 -65 -38 -74 -34 -25 11 86 80
229 141 392 168 66 10 312 -4 400 -24z m-4093 -415 c49 -6 177 -64 198 -90 19
-23 -7 -19 -66 9 -28 13 -79 30 -113 37 -104 20 -236 -14 -330 -85 l-35 -26
1997 0 c1098 0 1997 2 1997 5 0 13 -130 68 -190 81 -90 18 -198 1 -277 -46
-20 -11 -38 -18 -42 -15 -9 9 36 41 109 78 61 30 72 32 170 32 119 0 157 -13
287 -99 l70 -46 97 0 c76 0 96 3 96 14 0 18 54 64 84 72 33 8 90 -19 116 -54
l22 -29 976 -8 c538 -4 979 -9 981 -11 2 -2 2 -6 -1 -9 -2 -3 -441 -8 -975
-12 l-971 -6 -6 -38 c-12 -76 -101 -128 -195 -114 -57 9 -82 22 -173 90 l-73
55 -2094 0 -2094 0 -51 -39 c-84 -63 -132 -83 -198 -83 -77 0 -127 25 -153 78
l-20 41 -284 6 c-156 4 -413 7 -571 7 -453 0 -1102 13 -1093 21 4 4 382 10
838 14 457 3 894 8 972 11 l142 6 21 35 c24 41 80 67 126 58 34 -6 84 -55 84
-81 0 -11 18 -14 81 -14 82 0 82 0 168 54 90 57 171 94 231 106 35 7 52 6 142
-5z m-805 -511 c132 -100 136 -472 7 -570 -48 -37 -99 -41 -154 -12 -37 19
-51 34 -77 87 -78 157 -42 426 66 498 48 32 113 31 158 -3z m631 17 c20 -12
51 -129 106 -396 9 -44 19 -90 22 -103 2 -12 12 -22 20 -22 13 0 15 -7 10 -32
-8 -43 -30 -58 -86 -58 l-46 0 4 65 c2 35 2 75 -2 89 -6 23 -10 24 -73 22
l-68 -1 -3 -47 c-2 -29 1 -48 7 -48 16 0 13 -32 -5 -58 -12 -17 -25 -22 -60
-22 -24 0 -44 2 -44 4 0 2 7 22 15 45 18 52 10 54 -11 1 -9 -21 -23 -42 -32
-44 -10 -3 -63 -5 -120 -4 -99 2 -103 3 -96 23 4 11 9 122 11 247 4 222 4 227
-17 248 -19 19 -21 27 -13 54 8 30 11 31 72 34 l63 3 -6 -28 c-6 -36 -11 -226
-8 -375 l2 -118 58 0 c36 0 66 6 80 16 12 8 22 12 23 7 1 -8 39 159 77 333 15
69 16 83 4 91 -12 7 -12 14 1 46 15 35 19 37 59 37 24 0 49 -4 56 -9z m573
-12 c28 -14 45 -32 56 -57 21 -51 13 -125 -18 -158 l-23 -25 25 -22 c45 -39
63 -85 63 -163 -1 -56 -6 -79 -23 -108 -36 -58 -70 -70 -186 -68 -54 2 -101 4
-102 6 -2 2 1 15 7 30 6 16 10 124 10 257 0 195 -2 230 -15 235 -33 13 -4 79
38 87 60 12 130 6 168 -14z m702 3 c17 -19 51 -147 96 -367 22 -106 32 -141
45 -143 19 -4 20 -11 5 -49 -14 -37 -25 -43 -82 -43 l-49 0 7 40 c4 22 4 63 0
90 l-7 50 -63 0 c-69 0 -69 0 -79 -46 -5 -23 -2 -36 9 -48 11 -10 14 -24 9
-38 -11 -39 -25 -48 -71 -48 -38 0 -44 3 -39 18 3 9 17 76 31 147 14 72 37
179 52 239 21 86 24 113 14 128 -14 22 -5 65 18 78 27 16 86 12 104 -8z m947
8 c13 0 19 -11 23 -42 6 -55 67 -222 76 -211 7 8 33 93 45 146 5 21 3 27 -10
27 -13 0 -15 6 -9 27 11 44 24 53 76 53 27 0 49 -2 49 -4 0 -2 -12 -35 -26
-72 -77 -203 -94 -266 -94 -355 0 -68 3 -88 15 -93 19 -7 19 -36 -1 -64 -12
-18 -25 -22 -70 -22 l-56 0 7 29 c3 16 8 68 9 117 3 80 0 100 -31 194 -42 127
-72 185 -96 184 -9 0 -35 -1 -57 -2 l-40 -2 0 -209 c0 -202 1 -210 21 -225 16
-11 19 -20 14 -38 -13 -40 -26 -48 -79 -48 l-51 0 3 261 4 261 -67 -4 -67 -3
6 30 c12 55 24 59 184 66 81 3 160 4 176 2 16 -1 36 -3 46 -3z m1178 -4 c70
-36 114 -152 114 -301 0 -117 -13 -175 -50 -229 -41 -60 -76 -81 -132 -81 -73
0 -133 54 -161 144 -31 100 -20 302 21 381 19 37 64 84 90 93 29 11 91 7 118
-7z m382 -8 c32 -16 51 -35 65 -63 35 -71 18 -192 -33 -238 -20 -18 -20 -19
26 -118 32 -70 51 -99 63 -99 15 0 16 -5 8 -32 -11 -40 -24 -48 -76 -48 -40 0
-43 2 -43 27 0 15 -17 69 -37 120 -28 69 -42 93 -55 93 -15 0 -18 -9 -18 -64
0 -73 6 -96 26 -96 17 0 17 -3 0 -45 -15 -34 -16 -35 -75 -35 l-61 0 10 25 c5
14 11 127 12 252 2 223 1 226 -21 244 -25 20 -22 46 7 72 38 34 140 36 202 5z
m708 -15 c24 -19 46 -51 62 -89 23 -54 25 -72 25 -199 -1 -123 -4 -146 -23
-187 -26 -55 -82 -104 -126 -111 -17 -2 -66 -2 -109 1 -76 5 -78 6 -73 28 3
12 6 127 7 255 0 200 -2 235 -15 245 -20 14 -20 34 -1 61 18 26 47 32 143 29
64 -3 77 -7 110 -33z m-3461 -10 c-9 -55 -77 -111 -77 -63 0 17 -7 20 -49 20
l-49 0 -4 -70 c-2 -39 -2 -74 -1 -78 2 -4 33 -5 69 -4 59 3 66 2 60 -13 -3 -9
-6 -20 -6 -25 0 -22 -34 -40 -76 -40 l-45 0 3 -102 3 -103 93 0 c73 0 91 -3
87 -13 -3 -8 -8 -25 -11 -38 -10 -38 -33 -44 -163 -44 l-120 0 10 32 c5 18 9
135 9 260 0 221 -1 227 -21 233 -17 6 -19 12 -14 33 12 50 18 52 168 52 l140
0 -6 -37z m558 20 c-29 -77 -39 -329 -17 -419 24 -94 85 -121 128 -56 29 42
37 107 32 261 -3 115 -4 124 -27 142 -21 17 -23 24 -15 52 9 30 13 32 60 35
l51 3 -3 -93 c-2 -51 -6 -154 -8 -228 -4 -154 -27 -235 -74 -268 -89 -63 -177
-26 -221 92 -20 53 -22 78 -22 234 1 168 0 174 -20 179 -16 5 -19 11 -14 32
11 44 23 51 92 51 58 0 64 -2 58 -17z m1150 -12 c-5 -25 21 -217 45 -326 24
-107 21 -106 42 -10 11 50 20 110 21 135 1 63 -22 150 -39 150 -17 0 -18 20
-2 55 10 22 17 25 64 25 l54 0 -6 -29 c-7 -34 9 -155 41 -314 l22 -111 17 75
c24 108 36 188 36 240 0 39 -4 47 -25 57 -22 10 -24 14 -14 39 14 37 25 43 88
43 47 0 52 -2 46 -17 -7 -18 -32 -138 -54 -258 -24 -124 -43 -212 -58 -257
-21 -69 -93 -119 -93 -65 0 24 -38 218 -44 224 -2 2 -9 -25 -16 -59 -19 -89
-37 -139 -62 -165 -21 -22 -66 -33 -53 -13 3 5 -6 58 -19 117 -14 59 -35 162
-46 228 -26 149 -37 185 -57 185 -12 0 -14 7 -9 32 8 41 20 48 79 48 48 0 49
0 42 -29z m1329 12 c-11 -22 -18 -402 -9 -460 l6 -43 57 0 c36 0 66 6 80 16
25 17 27 11 11 -37 -22 -65 -30 -69 -151 -67 l-108 1 7 36 c5 20 8 134 8 254
0 197 -2 220 -17 231 -20 15 -23 38 -8 67 9 16 22 19 71 19 55 0 60 -2 53 -17z
m854 -79 c12 -8 22 -26 22 -40 0 -24 9 -28 78 -27 12 0 20 -2 17 -5 -8 -9 17
-32 28 -25 6 4 7 1 1 -8 -11 -18 -6 -52 10 -61 8 -6 8 -8 -1 -8 -7 0 -13 -8
-13 -17 0 -14 -10 -19 -44 -21 -25 -1 -47 2 -51 8 -3 6 0 7 10 4 24 -10 63 4
70 26 7 23 -18 75 -40 84 -34 13 -74 6 -85 -13 -14 -28 -12 -67 4 -80 12 -10
15 -8 19 11 2 13 3 9 2 -8 -3 -27 2 -33 30 -47 27 -13 41 -14 65 -5 17 5 34 7
38 4 3 -4 -4 -9 -16 -13 -12 -3 -22 -9 -22 -13 0 -5 -8 -6 -18 -4 -23 7 -82
-34 -102 -69 -13 -24 -13 -30 0 -54 22 -39 71 -43 105 -9 43 43 29 96 -26 96
-28 0 -44 -13 -52 -45 -5 -16 -5 -15 -4 4 1 13 13 33 28 43 20 15 30 17 52 9
26 -10 32 -5 28 22 0 4 17 7 40 7 22 0 38 -3 36 -7 -9 -15 13 -54 24 -47 8 4
9 3 5 -5 -4 -6 -12 -9 -17 -6 -5 4 -10 0 -10 -7 -1 -7 -4 3 -8 22 -5 29 -10
35 -31 35 -35 0 -43 -44 -8 -46 15 -1 17 -3 7 -6 -21 -5 -30 -35 -17 -56 7
-13 5 -15 -8 -10 -13 5 -16 3 -11 -10 4 -12 2 -14 -10 -10 -12 5 -15 2 -10
-10 3 -8 -1 -21 -9 -27 -8 -7 -14 -9 -14 -4 0 5 -5 2 -11 -6 -8 -12 -9 -11 -4
6 5 18 2 21 -20 16 -16 -3 -25 -11 -25 -24 0 -35 -19 -58 -49 -58 -36 0 -53
21 -49 57 3 24 8 28 33 28 22 0 30 -5 33 -20 2 -18 2 -18 -8 -3 -13 22 -36 23
-44 3 -14 -38 26 -66 55 -39 24 22 24 45 -1 74 -33 38 -27 87 18 128 l37 35
-42 44 c-48 49 -54 77 -22 117 23 30 22 64 -3 80 -13 8 -23 8 -35 0 -27 -17
-28 -44 -4 -51 23 -6 29 -23 8 -23 -39 0 -50 60 -15 84 12 9 25 16 28 16 3 0
16 -7 28 -16z m-6150 -84 c43 -40 23 -114 -40 -146 l-31 -16 32 -20 c33 -22
61 -64 61 -96 0 -10 -10 -32 -22 -48 -20 -26 -27 -29 -55 -23 -33 6 -46 -7
-18 -17 8 -4 12 -10 9 -15 -3 -5 0 -9 5 -9 6 0 11 -5 11 -11 0 -6 14 -22 30
-36 17 -13 30 -30 30 -36 0 -6 -27 17 -59 52 -33 36 -58 68 -56 71 3 4 -7 18
-21 31 -14 13 -27 22 -28 19 -1 -3 -19 10 -41 28 -22 17 -34 32 -27 32 7 0 10
5 7 10 -4 6 -10 8 -15 5 -5 -3 -11 -1 -14 4 -4 5 2 8 11 6 10 -2 22 -4 27 -4
4 -1 6 -8 2 -16 -3 -9 0 -15 8 -15 8 0 21 -10 29 -22 l16 -23 0 28 c1 19 -4
27 -16 28 -14 0 -13 2 5 9 26 11 28 23 6 41 -12 10 -20 10 -35 1 -16 -10 -19
-9 -19 3 0 11 11 15 43 15 40 1 41 1 18 14 -19 10 -20 14 -8 19 9 3 17 2 19
-2 2 -4 15 -11 29 -14 33 -8 88 26 108 68 12 25 12 32 -1 54 -12 22 -21 26
-56 25 -50 -1 -73 -24 -69 -68 3 -40 28 -54 69 -39 30 11 31 11 14 -2 -26 -20
-71 -19 -91 2 -20 19 -13 77 12 105 28 31 91 35 121 8z m4720 -519 c354 -5
646 -12 650 -15 3 -3 3 -8 1 -10 -2 -2 -400 -9 -884 -15 -1360 -17 -2515 -14
-3617 10 -42 1 -82 5 -88 9 -51 31 2306 44 3938 21z"/>
<path d="M5335 6703 c-620 -39 -1189 -299 -1615 -739 -755 -779 -902 -1961
-360 -2898 109 -190 226 -340 397 -510 369 -367 826 -597 1358 -683 156 -25
553 -25 715 1 232 36 500 121 700 221 83 41 252 138 275 157 5 4 52 39 102 76
627 460 1005 1231 980 2002 -11 329 -66 595 -182 877 -200 482 -568 904 -1020
1169 -198 116 -469 226 -653 265 -276 57 -483 76 -697 62z m-371 -567 c279
-137 384 -207 474 -317 68 -83 145 -239 176 -359 30 -113 49 -319 39 -412 l-8
-67 -40 77 c-116 222 -207 362 -302 462 -62 66 -83 82 -83 61 0 -5 25 -47 55
-93 105 -159 193 -354 229 -508 20 -85 21 -130 1 -130 -63 0 -503 263 -566
338 -100 120 -175 371 -199 661 -10 124 -50 326 -76 390 l-14 34 32 -7 c17 -3
145 -62 282 -130z m1850 -418 c-5 -7 -27 -42 -50 -78 -52 -82 -76 -130 -123
-245 -84 -204 -217 -384 -322 -438 -100 -50 -473 -136 -495 -114 -9 9 58 128
120 211 54 72 180 199 249 250 21 16 36 31 33 33 -8 9 -113 -50 -186 -105 -41
-31 -122 -101 -179 -156 -99 -97 -103 -100 -96 -66 14 66 73 220 110 285 96
171 240 297 395 344 36 11 133 31 215 45 295 50 341 54 329 34z m-2514 -268
c54 -70 178 -198 245 -253 54 -43 178 -124 244 -157 64 -32 185 -83 431 -181
69 -27 134 -54 145 -60 23 -11 149 -56 290 -105 409 -140 708 -410 843 -760
60 -156 76 -244 75 -409 -2 -507 -226 -925 -643 -1200 -98 -64 -230 -140 -230
-132 0 2 33 29 73 59 175 132 318 303 402 481 58 123 84 233 92 389 9 181 -16
314 -89 482 -67 154 -204 332 -340 442 -40 32 -75 62 -78 65 -3 4 -40 32 -84
63 -100 72 -223 138 -306 165 -36 12 -126 52 -200 89 -350 176 -583 384 -773
692 -79 129 -188 374 -211 475 -6 25 -2 22 25 -20 18 -27 58 -84 89 -125z
m-71 -905 c27 -114 63 -210 114 -306 l41 -76 -32 -99 c-36 -113 -101 -247
-155 -317 -45 -59 -50 -108 -14 -132 42 -27 149 -66 197 -72 55 -6 81 -19 64
-30 -24 -16 -64 -87 -64 -114 0 -29 48 -79 77 -79 11 0 13 -6 8 -22 -26 -82
-14 -109 58 -130 23 -6 43 -12 45 -13 1 -1 10 -31 19 -66 20 -81 63 -168 103
-208 51 -51 56 -50 365 79 89 37 198 94 233 120 12 10 56 30 97 45 67 25 83
27 182 23 152 -6 260 -49 369 -145 46 -41 34 -36 -53 23 -200 134 -433 134
-618 1 -47 -33 -264 -142 -401 -201 -69 -29 -131 -33 -173 -12 -61 32 -120
122 -151 230 -14 51 -21 61 -46 69 -69 23 -115 86 -100 140 4 15 -4 30 -29 54
-42 41 -53 90 -32 143 15 38 15 38 -11 45 -51 13 -167 72 -190 98 -18 18 -24
37 -24 70 0 39 9 58 60 134 79 117 123 210 153 323 11 42 10 49 -18 105 -74
149 -121 351 -128 555 l-4 125 18 -135 c11 -74 28 -175 40 -225z m574 -317
c-30 -78 -83 -129 -83 -82 0 11 -8 5 -22 -16 -28 -41 -48 -50 -41 -18 4 20 3
21 -9 8 -7 -8 -24 -24 -37 -35 -21 -17 -24 -18 -18 -2 8 20 -1 22 -22 3 -9 -7
-29 -16 -45 -20 -27 -7 -28 -6 -16 9 13 15 10 16 -26 10 l-39 -7 30 20 c17 10
39 38 50 61 13 30 23 40 34 36 75 -29 174 -9 226 45 16 17 30 30 32 30 1 0 -5
-19 -14 -42z"/>
<path d="M2872 708 c-40 -52 -47 -82 -47 -218 0 -120 2 -140 23 -181 35 -73
79 -73 113 -2 44 90 36 326 -12 387 -22 28 -60 34 -77 14z"/>
<path d="M4090 409 c0 -66 5 -129 10 -140 14 -25 52 -24 75 1 27 30 32 127 10
170 -17 33 -72 90 -87 90 -5 0 -8 -54 -8 -121z"/>
<path d="M6917 702 c-32 -36 -47 -101 -47 -211 0 -166 35 -251 97 -235 85 23
96 410 12 454 -26 15 -44 12 -62 -8z"/>
<path d="M7312 708 c-8 -8 -12 -47 -12 -110 0 -92 1 -98 20 -98 12 0 32 12 47
26 23 23 25 31 21 94 -3 55 -8 73 -23 84 -24 19 -37 20 -53 4z"/>
<path d="M7970 694 c-11 -28 -12 -310 -2 -389 6 -43 11 -50 30 -53 63 -9 107
96 105 248 -1 141 -35 220 -95 220 -21 0 -31 -6 -38 -26z"/>
<path d="M2260 430 c-18 -11 -16 -12 32 -15 33 -2 77 -29 66 -41 -3 -2 -11 2
-18 11 -16 20 -54 19 -74 -1 -22 -22 -20 -38 10 -73 19 -23 34 -31 58 -31 40
0 56 15 56 55 0 37 -22 70 -60 90 -34 17 -49 18 -70 5z"/>
</g>
</svg>
