<?xml version="1.0" standalone="no"?>
<!DOCTYPE svg PUBLIC "-//W3C//DTD SVG 20010904//EN"
 "http://www.w3.org/TR/2001/REC-SVG-20010904/DTD/svg10.dtd">
<svg version="1.0" xmlns="http://www.w3.org/2000/svg"
 width="300.000000pt" height="211.000000pt" viewBox="0 0 300.000000 211.000000"
 preserveAspectRatio="xMidYMid meet">
<metadata>
Created by potrace 1.10, written by Peter Selinger 2001-2011
</metadata>
<g transform="translate(0.000000,211.000000) scale(0.100000,-0.100000)"
fill="#fef9bc" stroke="none">
<path d="M1395 1934 c-173 -28 -352 -120 -460 -235 -133 -142 -195 -310 -198
-536 -2 -117 7 -149 36 -124 11 8 16 47 20 144 10 246 85 414 250 554 292 248
819 181 1043 -132 92 -129 134 -273 134 -455 0 -107 8 -136 33 -111 17 17 13
242 -6 326 -56 257 -262 470 -529 545 -72 21 -257 34 -323 24z m292 -30 c-3
-3 -12 -4 -19 -1 -8 3 -5 6 6 6 11 1 17 -2 13 -5z m-60 -10 c-3 -3 -12 -4 -19
-1 -8 3 -5 6 6 6 11 1 17 -2 13 -5z m60 -10 c-3 -3 -12 -4 -19 -1 -8 3 -5 6 6
6 11 1 17 -2 13 -5z m40 -10 c-3 -3 -12 -4 -19 -1 -8 3 -5 6 6 6 11 1 17 -2
13 -5z m68 -14 c-3 -5 -12 -10 -18 -10 -7 0 -6 4 3 10 19 12 23 12 15 0z m120
-68 c-3 -3 -11 0 -18 7 -9 10 -8 11 6 5 10 -3 15 -9 12 -12z m-951 -106 c-3
-9 -10 -13 -15 -10 -5 3 -3 11 4 19 15 16 19 13 11 -9z m-56 -66 c-7 -11 -17
-20 -22 -20 -5 0 -1 9 9 20 10 11 20 20 22 20 2 0 -2 -9 -9 -20z m1206 -9 c-2
-3 -12 3 -22 13 -16 17 -16 18 5 5 12 -7 20 -15 17 -18z m-1234 -41 c0 -5 -4
-10 -10 -10 -5 0 -10 5 -10 10 0 6 5 10 10 10 6 0 10 -4 10 -10z m-20 -24 c0
-2 -13 -40 -29 -83 -33 -88 -48 -166 -57 -301 -4 -51 -11 -92 -15 -92 -14 0
-10 199 5 265 18 76 53 169 66 173 6 2 10 12 10 23 0 10 5 19 10 19 6 0 10 -2
10 -4z m1315 -36 c3 -5 1 -10 -4 -10 -6 0 -11 5 -11 10 0 6 2 10 4 10 3 0 8
-4 11 -10z m35 -59 c0 -6 -4 -13 -10 -16 -5 -3 -10 1 -10 9 0 9 5 16 10 16 6
0 10 -4 10 -9z m25 -103 c3 -35 9 -72 12 -83 3 -13 2 -17 -5 -10 -11 11 -41
153 -34 160 12 12 21 -10 27 -67z m12 -140 c-3 -8 -6 -5 -6 6 -1 11 2 17 5 13
3 -3 4 -12 1 -19z m0 -40 c-3 -8 -6 -5 -6 6 -1 11 2 17 5 13 3 -3 4 -12 1 -19z
m0 -40 c-3 -8 -6 -5 -6 6 -1 11 2 17 5 13 3 -3 4 -12 1 -19z"/>
<path d="M1365 1805 c-33 -9 -102 -36 -154 -62 -220 -109 -351 -317 -351 -554
0 -110 21 -194 72 -291 106 -204 349 -348 588 -348 135 1 303 70 412 169 82
76 131 148 171 254 27 72 31 96 33 199 3 137 -11 200 -63 300 -81 155 -225
274 -393 324 -76 23 -239 27 -315 9z m178 -2 c-7 -2 -19 -2 -25 0 -7 3 -2 5
12 5 14 0 19 -2 13 -5z m148 -23 c33 -9 39 -14 28 -22 -11 -7 -9 -9 9 -5 12 3
20 1 17 -3 -6 -10 33 -25 54 -21 7 1 10 -2 7 -7 -7 -12 22 -25 35 -16 5 3 9 0
9 -5 0 -16 -27 -13 -54 4 -30 20 -164 65 -193 65 -22 0 -30 10 -17 22 7 8 50
3 105 -12z m-173 3 c-10 -2 -26 -2 -35 0 -10 3 -2 5 17 5 19 0 27 -2 18 -5z
m99 -29 c43 -9 107 -30 143 -47 36 -17 77 -30 93 -28 15 1 27 -3 27 -9 0 -6 5
-8 10 -5 6 3 10 1 10 -4 0 -14 -27 -14 -35 -1 -3 6 -11 10 -16 10 -5 0 19 -27
55 -60 108 -101 165 -212 187 -362 42 -289 -166 -569 -472 -634 -143 -31 -321
0 -439 76 -76 48 -164 150 -204 232 -49 104 -60 150 -60 263 0 166 53 294 173
415 70 70 128 107 212 135 107 36 207 42 316 19z m363 -187 c0 -5 5 -5 10 -2
6 3 10 1 10 -6 0 -7 9 -23 21 -35 12 -12 19 -28 17 -34 -2 -7 -16 5 -30 26
-14 22 -44 58 -66 80 -23 23 -38 44 -35 48 6 6 72 -64 73 -77z m-900 59 c0 -2
-8 -10 -17 -17 -16 -13 -17 -12 -4 4 13 16 21 21 21 13z m-57 -69 c-31 -33
-57 -84 -88 -173 -24 -66 -28 -96 -29 -184 -1 -58 3 -134 8 -170 5 -36 5 -62
1 -57 -5 4 -9 15 -10 25 -1 9 -8 31 -14 47 -19 45 -25 161 -13 240 7 44 26 99
52 150 38 76 99 160 109 150 2 -3 -5 -15 -16 -28z m1062 -149 c9 -29 20 -60
25 -69 4 -8 7 -30 5 -47 -2 -33 -11 -53 -12 -30 -2 30 -28 133 -34 138 -13 9
-22 60 -11 60 6 0 18 -24 27 -52z m-1116 -528 c0 -8 -5 -2 -11 15 -6 16 -17
36 -25 43 -7 8 -10 18 -7 24 7 12 44 -58 43 -82z m34 -45 c23 -32 17 -32 -13
0 -13 14 -19 25 -14 25 5 0 17 -12 27 -25z m68 -82 c13 -16 12 -17 -3 -4 -10
7 -18 15 -18 17 0 8 8 3 21 -13z"/>
<path d="M1382 1720 c-18 -4 -36 -11 -39 -14 -10 -10 61 5 72 15 5 5 7 9 5 8
-3 -1 -20 -5 -38 -9z"/>
<path d="M1438 1723 c6 -2 18 -2 25 0 6 3 1 5 -13 5 -14 0 -19 -2 -12 -5z"/>
<path d="M1603 1713 c9 -2 23 -2 30 0 6 3 -1 5 -18 5 -16 0 -22 -2 -12 -5z"/>
<path d="M1750 1666 c0 -2 7 -7 16 -10 8 -3 12 -2 9 4 -6 10 -25 14 -25 6z"/>
<path d="M1315 1633 c4 -16 11 -56 15 -91 12 -91 36 -130 110 -179 36 -24 68
-43 73 -43 12 0 1 34 -35 108 -49 103 -20 85 48 -30 l26 -43 -6 40 c-15 106
-27 134 -73 176 -26 25 -84 59 -99 59 -4 0 1 -9 11 -20 10 -11 24 -20 32 -20
16 0 16 3 18 -107 1 -52 -2 -93 -7 -93 -5 0 -22 13 -38 28 -22 23 -29 41 -34
88 -4 32 -9 71 -11 86 -2 15 1 30 7 34 7 5 5 11 -7 21 -29 20 -38 16 -30 -14z
m181 -118 c15 -20 25 -38 22 -40 -8 -8 -58 46 -58 61 0 21 7 17 36 -21z m-16
-136 c0 -5 -4 -9 -10 -9 -5 0 -10 7 -10 16 0 8 5 12 10 9 6 -3 10 -10 10 -16z"/>
<path d="M1830 1615 c13 -14 26 -25 28 -25 3 0 -5 11 -18 25 -13 14 -26 25
-28 25 -3 0 5 -11 18 -25z"/>
<path d="M1912 1544 c24 -28 54 -72 67 -98 14 -26 29 -50 33 -52 24 -15 -53
106 -96 150 l-48 51 44 -51z"/>
<path d="M1743 1520 c-49 -10 -92 -31 -114 -56 -24 -28 -61 -104 -50 -104 14
0 56 62 53 77 -3 14 36 42 67 48 19 4 21 0 21 -50 0 -53 -1 -55 -34 -69 -45
-19 -60 -41 -20 -32 49 12 77 39 111 105 18 35 38 70 44 77 13 16 -9 17 -78 4z
m31 -42 c-11 -36 -31 -61 -39 -49 -8 14 4 53 19 63 20 14 27 8 20 -14z"/>
<path d="M1190 1496 c0 -4 15 -36 32 -70 50 -93 117 -155 231 -211 168 -83
247 -177 247 -294 -1 -75 -29 -135 -93 -195 -29 -26 -41 -43 -28 -36 56 29
159 143 165 183 1 6 5 17 8 23 4 6 10 39 13 74 7 81 -13 153 -60 207 -51 60
-83 80 -187 117 -189 68 -246 103 -312 191 -9 11 -16 16 -16 11z m125 -136 c4
-6 10 -8 15 -5 5 3 15 -2 23 -10 8 -8 40 -24 71 -36 31 -11 56 -25 56 -30 0
-5 7 -9 15 -9 8 0 23 -4 33 -9 9 -5 36 -15 59 -21 52 -16 133 -93 133 -127 0
-13 4 -22 9 -18 27 16 37 -172 11 -199 -9 -9 -24 29 -16 43 3 5 -1 22 -9 37
-8 16 -15 36 -15 44 0 22 -47 88 -89 124 -20 17 -46 41 -58 52 -12 12 -24 20
-27 17 -2 -3 -26 5 -51 16 -26 12 -54 21 -61 21 -8 0 -14 4 -14 9 0 5 -9 13
-20 16 -21 7 -49 31 -84 73 -16 19 -17 22 -3 22 9 0 19 -5 22 -10z"/>
<path d="M1630 1374 c-41 -44 -46 -62 -15 -51 8 4 15 14 15 23 0 10 15 30 33
45 17 16 27 28 21 29 -6 0 -30 -21 -54 -46z"/>
<path d="M1186 1294 c4 -27 13 -67 20 -89 19 -56 18 -72 -12 -122 -29 -50 -26
-70 11 -79 14 -3 25 -11 24 -18 -4 -21 13 -66 27 -74 8 -5 22 -24 32 -43 9
-18 25 -35 36 -37 10 -2 56 15 101 37 94 46 101 47 153 26 32 -13 35 -13 18 0
-43 33 -82 30 -176 -15 -49 -23 -94 -39 -101 -35 -6 4 -17 23 -25 41 -8 19
-19 34 -24 34 -6 0 -10 9 -10 19 0 11 -6 21 -12 24 -10 3 -10 9 -1 25 11 18 9
21 -23 26 -18 4 -34 12 -34 18 0 6 12 35 26 65 26 52 26 55 10 91 -9 20 -21
61 -26 91 -13 70 -22 80 -14 15z"/>
<path d="M1326 1172 c-3 -5 -19 -12 -36 -16 -17 -3 -29 -10 -25 -15 3 -6 17
-6 35 1 30 10 46 25 37 34 -3 3 -8 1 -11 -4z"/>
<path d="M1975 917 c-16 -29 -54 -79 -84 -112 l-55 -60 52 50 c48 45 130 161
120 170 -2 2 -17 -19 -33 -48z"/>
<path d="M1690 680 c-8 -5 -10 -10 -5 -10 6 0 17 5 25 10 8 5 11 10 5 10 -5 0
-17 -5 -25 -10z"/>
<path d="M1338 663 c7 -3 16 -2 19 1 4 3 -2 6 -13 5 -11 0 -14 -3 -6 -6z"/>
<path d="M1608 653 c6 -2 18 -2 25 0 6 3 1 5 -13 5 -14 0 -19 -2 -12 -5z"/>
<path d="M1428 643 c7 -3 16 -2 19 1 4 3 -2 6 -13 5 -11 0 -14 -3 -6 -6z"/>
<path d="M1468 643 c7 -3 16 -2 19 1 4 3 -2 6 -13 5 -11 0 -14 -3 -6 -6z"/>
<path d="M1508 643 c7 -3 16 -2 19 1 4 3 -2 6 -13 5 -11 0 -14 -3 -6 -6z"/>
<path d="M1553 643 c9 -2 23 -2 30 0 6 3 -1 5 -18 5 -16 0 -22 -2 -12 -5z"/>
<path d="M484 796 c-37 -17 -74 -72 -74 -113 0 -40 35 -90 89 -128 41 -29 48
-30 139 -29 79 0 113 6 182 29 86 29 157 36 220 23 28 -6 31 -5 17 3 -46 27
-129 22 -280 -15 -108 -27 -157 -35 -184 -30 -71 13 -132 53 -159 107 -32 60
22 147 91 147 59 0 97 -67 57 -103 -19 -17 -94 -37 -79 -21 5 5 14 9 20 9 8 0
12 18 12 47 0 47 -4 49 -37 20 -12 -10 -15 -23 -11 -45 4 -21 3 -28 -5 -23
-17 10 -15 0 4 -18 23 -24 71 -20 99 9 42 41 30 102 -25 130 -35 18 -36 18
-76 1z m36 -75 c0 -6 -4 -13 -10 -16 -5 -3 -10 1 -10 9 0 9 5 16 10 16 6 0 10
-4 10 -9z"/>
<path d="M2443 794 c-42 -21 -60 -64 -43 -104 7 -17 21 -35 31 -40 27 -15 75
-12 89 5 9 11 10 15 0 15 -7 0 -10 10 -6 28 6 28 2 38 -26 60 -14 12 -17 11
-17 -5 -3 -83 -15 -99 -51 -63 -37 37 2 100 62 100 43 0 98 -57 98 -101 0 -68
-60 -128 -150 -148 -46 -10 -119 0 -240 34 -69 20 -178 29 -207 18 -15 -5 0
-8 50 -8 54 -1 97 -9 172 -34 122 -40 199 -44 265 -13 81 38 120 86 120 148 0
49 -28 90 -76 110 -40 17 -32 17 -71 -2z m57 -118 c0 -3 -4 -8 -10 -11 -5 -3
-10 -1 -10 4 0 6 5 11 10 11 6 0 10 -2 10 -4z"/>
<path d="M880 674 c-45 -16 -103 -17 -118 -2 -9 9 -12 9 -12 0 0 -28 45 -42
136 -40 113 3 179 -18 240 -76 38 -36 44 -40 44 -22 0 12 -10 41 -22 66 -18
38 -22 42 -25 23 -3 -13 -8 -23 -13 -23 -5 0 -37 18 -71 40 -34 22 -69 40 -78
41 -9 0 -23 2 -31 3 -8 1 -31 -3 -50 -10z m73 -11 c-7 -2 -19 -2 -25 0 -7 3
-2 5 12 5 14 0 19 -2 13 -5z"/>
<path d="M2038 676 c-20 -7 -58 -27 -84 -45 -50 -33 -70 -35 -68 -8 1 9 -3 14
-8 11 -14 -9 -48 -85 -48 -109 0 -17 6 -14 33 17 59 67 170 104 265 89 54 -8
96 3 120 32 12 14 10 15 -16 5 -28 -11 -84 -5 -142 16 -8 3 -32 -1 -52 -8z
m49 -12 c-3 -3 -12 -4 -19 -1 -8 3 -5 6 6 6 11 1 17 -2 13 -5z"/>
<path d="M581 622 c-12 -23 3 -50 34 -62 16 -6 41 -4 77 6 29 8 76 21 103 29
l50 13 -38 1 c-21 1 -58 -4 -82 -10 -52 -13 -88 -6 -115 21 -18 18 -20 19 -29
2z"/>
<path d="M2393 618 c-24 -24 -36 -25 -173 -15 -41 3 -61 3 -45 1 17 -3 63 -16
103 -30 78 -26 109 -24 138 7 12 14 15 25 8 39 -9 20 -9 20 -31 -2z"/>
<path d="M880 555 c-25 -7 -85 -27 -134 -45 -81 -29 -93 -31 -145 -22 -35 7
-60 7 -66 1 -20 -20 20 -30 98 -26 64 4 77 3 77 -10 0 -10 13 -3 40 21 51 46
80 48 80 6 0 -16 2 -30 5 -30 3 0 20 16 37 36 17 19 44 42 59 50 32 16 106 19
143 4 39 -14 31 -1 -9 16 -42 17 -124 17 -185 -1z m-10 -35 c0 -5 -4 -10 -10
-10 -5 0 -10 5 -10 10 0 6 5 10 10 10 6 0 10 -4 10 -10z"/>
<path d="M1934 556 c-18 -8 -35 -19 -39 -26 -5 -7 3 -7 21 3 80 40 168 20 220
-49 29 -37 48 -36 38 2 -10 39 37 32 79 -11 37 -38 47 -43 47 -22 0 11 17 13
79 9 55 -3 81 -1 86 8 13 21 -9 29 -56 19 -52 -11 -81 -6 -214 42 -105 37
-212 48 -261 25z m216 -36 c0 -5 -2 -10 -4 -10 -3 0 -8 5 -11 10 -3 6 -1 10 4
10 6 0 11 -4 11 -10z"/>
<path d="M1015 450 c-32 -21 -75 -27 -75 -10 0 6 -9 10 -19 10 -11 0 -23 -4
-26 -10 -4 -6 -100 -11 -248 -12 l-242 -3 240 -2 c199 -3 241 -6 248 -18 10
-19 40 -19 77 0 25 13 104 15 530 15 485 -1 501 -1 535 -21 37 -22 75 -18 75
7 0 12 34 14 203 16 l202 2 -205 6 c-113 3 -211 7 -219 10 -7 3 -16 -1 -18 -7
-3 -7 1 -13 9 -13 10 0 9 -3 -2 -10 -8 -5 -19 -10 -25 -10 -5 0 -4 4 4 9 10 7
6 11 -17 15 -16 4 -47 16 -68 26 -23 12 -47 17 -63 13 -43 -9 -43 -19 -2 -15
22 2 48 -1 58 -7 13 -7 -118 -10 -466 -11 -388 0 -482 3 -472 13 6 6 32 12 56
12 23 0 38 3 32 7 -22 14 -72 8 -102 -12z m-58 -36 c-3 -3 -12 -4 -19 -1 -8 3
-5 6 6 6 11 1 17 -2 13 -5z"/>
<path d="M850 331 c-5 -11 -10 -36 -10 -56 0 -46 15 -75 40 -75 25 0 40 29 40
75 0 46 -15 75 -40 75 -11 0 -24 -9 -30 -19z m45 -57 c0 -37 -4 -49 -15 -49
-16 0 -27 63 -16 92 12 31 31 6 31 -43z"/>
<path d="M944 275 c1 -70 2 -75 23 -75 29 0 38 16 12 23 -19 5 -21 12 -17 66
2 39 -1 61 -8 61 -7 0 -10 -28 -10 -75z"/>
<path d="M1026 314 c-4 -19 -10 -42 -13 -50 -4 -10 3 -14 26 -14 28 0 31 -2
25 -25 -5 -19 -2 -25 11 -25 13 0 16 6 11 23 -3 12 -11 46 -17 75 -14 60 -34
68 -43 16z m28 -26 c5 -21 3 -28 -9 -28 -17 0 -18 4 -9 38 8 27 9 26 18 -10z"/>
<path d="M1145 275 c0 -75 0 -75 27 -75 35 0 55 32 39 66 -6 13 -8 31 -5 39 8
21 -14 45 -40 45 -20 0 -21 -5 -21 -75z m45 39 c0 -8 -4 -14 -9 -14 -11 0 -22
26 -14 34 9 9 23 -3 23 -20z m10 -70 c0 -17 -20 -28 -30 -18 -5 5 -6 22 -3 38
6 27 7 28 19 11 8 -10 14 -24 14 -31z"/>
<path d="M1239 346 c-2 -2 -3 -36 -1 -75 l4 -71 29 0 c16 0 29 5 29 10 0 6 -9
10 -19 10 -11 0 -21 6 -24 13 -6 20 4 47 19 47 8 0 14 4 14 10 0 5 -7 7 -15 4
-11 -4 -15 0 -15 16 0 17 5 21 19 17 12 -3 22 1 25 9 4 10 -4 14 -28 14 -18 0
-35 -2 -37 -4z"/>
<path d="M1339 348 c0 -2 -2 -12 -4 -23 -2 -11 -8 -42 -13 -70 -11 -52 -10
-61 6 -51 6 3 8 15 5 26 -4 16 0 20 21 20 21 0 26 5 26 24 0 33 -17 76 -30 76
-5 0 -10 -1 -11 -2z m21 -63 c0 -14 -4 -25 -10 -25 -5 0 -10 11 -10 25 0 14 5
25 10 25 6 0 10 -11 10 -25z"/>
<path d="M1409 345 c-11 -10 8 -116 22 -131 19 -19 45 -9 53 19 9 35 7 117 -3
117 -13 0 -22 -16 -14 -24 13 -13 9 -87 -5 -98 -22 -18 -33 10 -29 70 2 35 0
52 -8 52 -6 0 -14 -2 -16 -5z"/>
<path d="M1500 340 c0 -5 7 -10 16 -10 13 0 15 -11 13 -62 -2 -49 0 -63 12
-63 8 0 13 6 12 13 -5 23 -5 27 -4 70 1 28 5 42 14 42 14 0 37 -40 37 -65 0
-28 18 -15 34 25 19 47 20 60 6 60 -5 0 -10 -11 -10 -24 0 -37 -19 -42 -26 -7
-6 30 -9 31 -55 31 -27 0 -49 -4 -49 -10z"/>
<path d="M1690 348 c9 -54 38 -149 43 -140 11 17 -16 142 -30 142 -7 0 -13 -1
-13 -2z"/>
<path d="M1743 301 c1 -27 5 -47 10 -44 4 2 7 -10 7 -26 0 -43 17 -39 29 7 21
82 24 115 10 110 -9 -3 -13 -18 -11 -44 4 -65 -14 -74 -22 -10 -9 69 -25 74
-23 7z"/>
<path d="M1834 325 c-19 -30 -14 -89 11 -114 37 -37 81 48 54 105 -19 38 -44
42 -65 9z m51 -29 c8 -41 -1 -76 -20 -76 -19 0 -28 35 -20 76 8 44 32 44 40 0z"/>
<path d="M1924 334 c3 -9 6 -31 6 -51 0 -28 3 -34 16 -29 11 4 19 -3 27 -24
12 -30 21 -37 31 -21 3 5 -1 14 -9 21 -12 10 -14 24 -9 58 7 48 -2 62 -45 62
-17 0 -22 -4 -17 -16z m46 -29 c0 -14 -4 -25 -10 -25 -5 0 -10 11 -10 25 0 14
5 25 10 25 6 0 10 -11 10 -25z"/>
<path d="M2014 334 c3 -9 6 -43 6 -75 0 -59 0 -60 27 -57 14 2 28 8 30 15 3 7
-3 9 -16 6 -23 -6 -24 -5 -21 75 1 43 -2 52 -15 52 -12 0 -15 -5 -11 -16z"/>
<path d="M2089 346 c-2 -2 -3 -36 -1 -75 3 -66 5 -71 27 -71 32 0 50 26 50 75
0 23 -6 49 -14 58 -12 15 -51 23 -62 13z m52 -33 c13 -35 3 -93 -16 -93 -12 0
-15 14 -15 60 0 64 14 78 31 33z"/>
<path d="M2230 320 c0 -5 5 -10 10 -10 6 0 10 -7 10 -15 0 -14 12 -19 33 -16
4 0 7 -6 7 -14 0 -13 -4 -14 -21 -5 -11 6 -30 9 -42 7 -19 -4 -19 -4 4 -6 22
-1 26 -5 24 -30 l-2 -29 35 34 c19 19 33 35 31 37 -2 2 -19 15 -37 30 -35 28
-52 34 -52 17z"/>
<path d="M708 294 l-25 -26 30 -34 c30 -33 57 -45 57 -23 0 5 -4 7 -10 4 -5
-3 -10 -1 -10 4 0 6 -7 11 -15 11 -8 0 -15 7 -15 16 0 10 8 15 23 14 63 -6 75
5 17 15 -42 7 -49 13 -30 25 8 5 12 11 9 14 -3 3 -17 -6 -31 -20z"/>
<path d="M1010 220 c0 -19 3 -21 12 -12 9 9 9 15 0 24 -9 9 -12 7 -12 -12z"/>
<path d="M1370 220 c0 -13 5 -20 13 -17 6 2 12 10 12 17 0 7 -6 15 -12 18 -8
2 -13 -5 -13 -18z"/>
<path d="M1600 221 c0 -12 6 -21 16 -21 9 0 14 7 12 17 -5 25 -28 28 -28 4z"/>
<path d="M1930 221 c0 -11 4 -21 9 -21 18 0 21 18 6 30 -13 10 -15 9 -15 -9z"/>
<path d="M1223 173 c153 -2 401 -2 550 0 150 1 25 2 -278 2 -302 0 -425 -1
-272 -2z"/>
</g>
</svg>
